<svg xmlns="http://www.w3.org/2000/svg" viewBox="0 0 24 24" width="24" height="24">
  <path fill="#107C10" d="M4.102 21.033A11.947 11.947 0 0 0 12 24a11.95 11.95 0 0 0 7.9-2.967c1.877-1.912-4.316-8.709-7.9-11.417-3.582 2.708-9.775 9.505-7.898 11.417zm11.16-14.406c2.5 2.961 7.48 10.313 6.894 11.312A11.942 11.942 0 0 0 24 12.004a11.95 11.95 0 0 0-3.476-8.464c-.875-1.12-3.219-.406-5.262 3.086zm-5.795-6.064c-1.005 0-2.099.223-3.257 1.078-1.48.855-2.263 2.132-1.952 3.217 1.254-1.071 2.574-1.715 3.881-2.174 1.491-.719 2.999-.922 4.168-.72a8.4 8.4 0 0 0-1.067-.74C9.571 1.146 9.07.625 8.335.34a2.116 2.116 0 0 0-1.867.223zM12.002 0c-.7.001-1.692.183-2.298.683C8.756 1.143 8.47 1.546 8.08 2.147c-.536.819-1.103 1.676-1.395 1.993-.488.527-1.094 1.308-1.336 1.992h.001c-.09.244-.14.524-.14.829 0 1.071.602 2.203 1.933 3.202 1.914 1.317 3.946 1.965 6.856 1.965h.002c2.908 0 4.94-.648 6.853-1.965 1.32-.992 1.929-2.124 1.938-3.189.01-.693-.26-1.548-.795-2.218-.51-.64-.971-1.483-1.522-2.322C19.728 1.169 18.60.421 18.075.229 17.806.121 17.511.065 17.222.065 15.962.065 14.866.692 14.184 1.06c-.545.296-.979.609-1.454.985-.068-.07-.137-.14-.205-.214-.815-.831-1.328-1.231-1.926-1.558C10.128.085 9.447.002 9.001 0h3.001z"/>
</svg>
